<svg width="139" height="50" viewBox="0 0 139 50" fill="none" xmlns="http://www.w3.org/2000/svg">
<path fill-rule="evenodd" clip-rule="evenodd" d="M90.9806 24.2638C90.9246 24.2364 89.1748 23.6849 88.734 22.9412C88.734 22.9412 90.2771 21.1077 91.1044 24.2638C91.1177 24.2916 91.0353 24.2916 90.9806 24.2638H90.9806V24.2638ZM90.783 20.1225C89.3016 19.8191 87.9429 22.1049 87.9429 22.1049C87.9429 22.1049 87.7278 21.954 87.6819 21.9721C87.6358 21.9906 86.606 23.2782 86.4495 23.4896C84.8682 25.6292 83.2845 25.3761 83.2748 25.3849C80.3407 25.4218 79.3835 22.8089 79.3105 22.7074C78.6526 21.2819 78.5532 21.384 78.3806 21.282C78.1511 21.1454 77.2778 21.2361 76.017 22.3121C74.7371 23.4035 73.7286 26.3192 73.7103 26.3566C72.1598 31.435 71.4339 31.3094 70.8634 31.2916C70.293 31.2732 69.8264 30.6123 69.3479 29.7016C68.8692 28.7908 68.6179 26.4442 68.627 25.4876C68.6362 24.5305 68.719 24.1655 68.627 24.1745C68.5352 24.1839 68.3295 24.5394 68.2788 24.796C68.0165 26.134 68.2388 27.8997 68.2388 28.038C68.3312 29.7205 69.4204 32.8643 70.9194 32.8738C72.4191 32.8827 73.0393 30.6547 73.1741 30.2932C73.4796 29.4757 73.9132 27.5205 74.8297 25.5596C75.7206 23.6529 77.4972 23.6374 77.6628 23.6919C77.8285 23.7471 79.4944 27.5928 82.3555 27.7586C85.2167 27.9242 86.1829 25.5868 86.4215 25.1552C86.661 24.7223 86.9002 24.6123 86.9653 24.5475C87.0292 24.4831 87.2041 24.649 87.2041 24.6393C87.6821 25.5138 91.0498 27.3905 91.739 26.7468C92.4295 26.1027 92.8795 24.7851 92.899 24.474C92.9182 24.163 92.2639 20.4258 90.783 20.1224V20.1225L90.783 20.1225Z" fill="#797979"/>
<path fill-rule="evenodd" clip-rule="evenodd" d="M60.8913 14.7186L60.845 14.5714L61.6913 14.5622L62.0642 14.5479C62.0642 14.5479 61.99 14.2831 61.6913 14.0935C61.5245 14.0056 59.2253 12.6031 58.6645 12.4187C58.6462 12.4279 58.2224 14.9948 58.2224 14.9948C58.2226 14.9948 58.7931 15.0315 58.9312 15.234C59.0694 15.4364 60.1602 16.9877 60.6154 17.4331C61.0598 17.8684 62.8507 19.696 66.5399 21.1863C67.9248 21.5721 68.3435 22.4226 68.3435 22.4226C68.3435 22.4225 66.8147 23.6609 65.528 24.5265C65.1213 24.7996 59.1655 28.6134 56.6317 29.7338C56.5487 29.7707 54.1625 30.862 53.5644 29.8515C53.0521 28.987 52.9539 28.0958 53.9661 25.4646C53.9661 25.4736 54.2606 24.7287 54.2606 24.7287L54.457 23.9435C54.457 23.9435 53.8437 24.6153 53.034 27.0351C52.5937 28.1405 52.0069 31.0468 53.0835 32.0394C54.1597 33.0339 55.2424 32.678 57.206 31.7929C59.4841 30.7662 67.3417 25.9968 68.4971 24.456C68.9961 23.7905 69.0705 22.9584 69.1069 22.6259C69.1299 22.4263 69.3217 20.6121 68.4971 19.8159C67.9614 19.2983 67.6164 19.0521 66.5126 18.5184C65.4087 17.9853 62.4737 16.5132 61.3235 15.1422C61.3138 15.1422 60.8913 14.7188 60.8913 14.7187V14.7186L60.8913 14.7186Z" fill="#797979"/>
<path fill-rule="evenodd" clip-rule="evenodd" d="M57.6807 21.521L58.8114 19.2842L61.1386 20.9317L59.9982 23.2494L57.6807 21.521Z" fill="#797979"/>
<path fill-rule="evenodd" clip-rule="evenodd" d="M35.9233 34.5419L37.0541 32.3064L39.3828 33.9539L38.241 36.2716L35.9233 34.5419Z" fill="#797979"/>
<path fill-rule="evenodd" clip-rule="evenodd" d="M39.6431 34.0568L40.7752 31.8213L43.1025 33.4674L41.9621 35.7865L39.6431 34.0568Z" fill="#797979"/>
<path fill-rule="evenodd" clip-rule="evenodd" d="M69.2456 18.0424L70.3781 15.8069L72.7053 17.4529L71.5649 19.7721L69.2456 18.0424Z" fill="#797979"/>
<path fill-rule="evenodd" clip-rule="evenodd" d="M72.9668 17.5572L74.0975 15.3218L76.4248 16.9693L75.2844 19.287L72.9668 17.5572Z" fill="#797979"/>
<path fill-rule="evenodd" clip-rule="evenodd" d="M52.465 9.52959L52.4169 9.33082L53.6518 9.37957C53.6518 9.37957 53.6821 9.17578 53.4569 8.91707C53.2926 8.72815 50.9083 6.54321 50.9083 6.54321L50.1446 9.1102C50.1446 9.1102 50.678 9.41371 50.7246 9.55166C50.7704 9.6894 51.2672 11.1524 51.5249 11.5848C51.7824 12.0176 53.2267 14.5841 53.5028 14.9798C53.5028 14.9979 53.7942 15.3692 53.8065 16.0194C53.8065 16.0376 53.751 16.1575 53.7148 16.1851C53.6774 16.2127 52.086 17.2247 50.2553 17.4089L49.1326 17.4359L48.0778 19.4791C48.0778 19.4791 49.2887 19.9204 49.3906 20.0123C49.4916 20.1043 51.0278 20.7332 52.0035 21.0243C52.8905 21.2893 54.239 21.5853 54.4597 21.7698C54.9719 22.0058 55.0209 22.4691 55.0209 22.4691C55.0209 22.4691 51.5612 25.1706 43.8336 26.8749C43.1343 26.9858 32.867 29.1207 23.7401 25.735C23.5932 25.6613 19.2749 24.2382 16.1959 21.6869C15.9016 21.3924 13.4728 19.2211 13.4728 19.2211L12.209 17.8596L12.7982 19.1845C12.7982 19.1845 16.4903 24.6311 16.6745 24.8145C16.8586 24.999 20.134 27.8324 28.1931 29.6724C31.7258 30.4815 38.7181 30.1507 41.9196 29.5993C45.1217 29.0471 52.8863 26.9367 55.3152 24.1155C55.4627 23.9317 56.6768 21.6501 56.6031 21.0243C56.6889 20.2393 56.0145 19.5894 55.5731 19.4793C55.1313 19.3686 52.997 18.7799 52.7759 18.706C52.8499 18.7798 54.9125 17.5292 54.8738 15.2468C54.9471 13.4434 54.506 12.9652 54.3954 12.7075C54.2852 12.4496 52.5911 9.81175 52.5911 9.81175L52.4651 9.52973L52.465 9.52958L52.465 9.52959Z" fill="#797979"/>
<path fill-rule="evenodd" clip-rule="evenodd" d="M38.8044 14.59L37.5304 16.7022V16.767C37.5304 16.767 40.6882 16.7987 41.0833 16.9356C41.4082 17.0483 41.0747 17.2652 41.0747 17.2652C41.0747 17.2652 38.4496 18.379 37.6594 18.6692C37.5141 18.718 37.4497 18.8783 37.4497 18.8783C37.4497 18.8783 40.4065 18.6721 41.1261 18.3465C42.0362 17.6569 43.1574 15.864 43.2377 15.6539C43.3188 15.4446 43.3186 15.3478 43.2545 15.2996C43.1896 15.2513 42.8027 14.5575 40.9646 14.5251C39.1267 14.4937 38.8044 14.5899 38.8044 14.5899V14.59L38.8044 14.59Z" fill="#797979"/>
<path fill-rule="evenodd" clip-rule="evenodd" d="M56.6619 1.21949C56.6619 1.21949 45.4944 4.91934 39.3966 6.95211C33.2984 8.9847 24.4048 12.6198 24.4048 12.6198L23.1235 14.8295C23.1235 14.8295 38.358 9.20418 39.0652 8.93922C39.7721 8.67373 55.6623 3.16146 55.6623 3.16146L56.662 1.21953L56.6619 1.21948L56.6619 1.21949Z" fill="#797979"/>
<path fill-rule="evenodd" clip-rule="evenodd" d="M65.1859 3.45227C65.1859 3.45227 64.1979 2.58877 64.0529 2.49506C63.8186 2.34338 63.8186 2.09571 63.8186 2.09571C64.7763 1.44155 65.1692 1.85659 65.2978 2.14394C65.5343 2.67295 65.1859 3.45243 65.1859 3.45227V3.45227ZM65.6495 3.72843C66.7027 1.35069 65.8752 0.831367 65.6649 0.691499C65.5414 0.609599 65.4101 0.573959 65.2737 0.573492C64.8646 0.571887 64.4103 0.886744 63.9888 1.21844C63.3567 1.71621 63.0157 2.25532 63.1117 3.02148C63.1996 3.72568 64.3955 4.48475 64.5857 4.60146C64.6028 4.61198 64.6114 4.61716 64.6114 4.61716L64.6433 4.63544C64.1322 5.32877 62.082 7.27205 60.0078 8.64399C58.6904 9.51588 55.1323 11.9579 55.1323 11.9579C55.1323 11.9579 55.9379 11.66 56.0494 11.5802C56.5444 11.3494 58.8365 10.0584 60.7668 8.94103C62.6976 7.82385 64.9626 4.88876 64.9626 4.88876C64.9626 4.88876 65.0746 4.96807 65.0905 4.95253C65.4892 5.12752 65.9203 5.98988 65.9203 5.98988C65.9203 5.98973 65.9203 6.08556 66.0483 5.90974C66.1756 5.73408 66.2876 4.74486 66.2876 4.48973C66.2876 4.23444 65.6496 3.72838 65.6496 3.72838L65.6495 3.72843L65.6495 3.72843Z" fill="#797979"/>
<path fill-rule="evenodd" clip-rule="evenodd" d="M78.8273 4.08697C78.8273 4.08697 77.8387 3.22269 77.6943 3.12909C77.4589 2.97725 77.4589 2.72974 77.4589 2.72974C78.4166 2.07573 78.8095 2.49077 78.9387 2.77833C79.1751 3.30687 78.8273 4.08697 78.8273 4.08697V4.08697ZM79.2898 4.36266C80.3429 1.98507 79.516 1.46544 79.3052 1.32604C78.8119 0.998082 78.1916 1.41038 77.6297 1.85247C76.9969 2.35039 76.6566 2.88982 76.7525 3.65551C76.841 4.36002 78.0357 5.11893 78.2271 5.23565C78.2436 5.24632 78.2528 5.25134 78.2528 5.25134L78.2842 5.2703C77.773 5.96301 75.7229 7.90608 73.6487 9.27822C72.3312 10.15 68.7739 12.5918 68.7739 12.5918C68.7739 12.5918 69.5785 12.2943 69.6898 12.2143C70.185 11.9837 72.4768 10.6923 74.4076 9.575C76.3386 8.45818 78.6035 5.52305 78.6035 5.52305C78.6035 5.52289 78.7148 5.60251 78.7314 5.58651C79.1299 5.76232 79.5612 6.6237 79.5612 6.6237C79.5612 6.6237 79.5612 6.71953 79.688 6.54387C79.8165 6.36872 79.9272 5.37914 79.9272 5.12401C79.9272 4.86888 79.2899 4.36267 79.2899 4.36267H79.2898L79.2898 4.36266Z" fill="#797979"/>
<path fill-rule="evenodd" clip-rule="evenodd" d="M118.756 9.80507C118.756 9.80507 117.966 9.11397 117.85 9.03922C117.661 8.91733 117.661 8.71965 117.661 8.71965C118.428 8.19629 118.743 8.52829 118.845 8.75803C119.034 9.18199 118.756 9.80528 118.756 9.80507L118.756 9.80507ZM119.127 10.0261C119.97 8.12376 119.307 7.70804 119.139 7.59667C118.744 7.33408 118.247 7.66417 117.798 8.01772C117.293 8.41593 117.019 8.8477 117.096 9.45996C117.166 10.0241 118.123 10.6309 118.276 10.7246C118.289 10.7326 118.296 10.7369 118.296 10.7369L118.322 10.7516C117.913 11.3059 116.273 12.8611 114.614 13.9584C113.559 14.6561 110.713 16.6092 110.713 16.6092C110.713 16.6092 111.357 16.3711 111.447 16.3075C111.842 16.1223 113.676 15.0895 115.221 14.196C116.766 13.3026 118.577 10.9543 118.577 10.9543C118.577 10.9543 118.666 11.0176 118.68 11.0051C118.998 11.1457 119.344 11.8353 119.344 11.8353C119.344 11.8353 119.344 11.9114 119.446 11.7708C119.547 11.6305 119.636 10.8388 119.636 10.6347C119.636 10.431 119.127 10.0261 119.127 10.0261H119.127V10.0261Z" fill="#797979"/>
<path fill-rule="evenodd" clip-rule="evenodd" d="M85.3859 6.24553L85.3853 6.54179C85.3853 6.54179 84.9655 6.20719 84.4029 6.03252C84.3905 6.0393 84.2676 5.97455 84.2676 5.94865C84.2676 5.92275 84.3773 4.92083 84.4549 4.83649C84.5326 4.75232 84.7388 4.6427 84.8039 4.6427C84.8685 4.6427 86.0558 5.11395 86.6023 7.29987C86.6086 7.29987 86.8491 8.305 86.8491 8.305L86.9211 7.72579C86.9211 7.72579 87.1774 5.31484 87.2248 5.08805C87.2894 4.77899 87.5258 4.23895 87.9067 4.23247C88.2882 4.22584 88.9644 4.86721 88.9644 4.86721L88.6298 5.74868C88.6298 5.74868 88.0906 5.26402 87.8775 5.24962C87.4311 5.21968 87.3477 5.96092 87.2312 7.22802C87.1146 8.49542 87.0369 8.77982 86.953 8.97361C86.8697 9.16772 86.7782 9.31018 86.7782 9.31018C86.3728 7.22946 85.4059 6.21999 85.4059 6.21999L85.386 6.24558L85.3859 6.24553L85.3859 6.24553Z" fill="#797979"/>
<path fill-rule="evenodd" clip-rule="evenodd" d="M105.134 12.0829V12.3787C105.134 12.3787 104.714 12.0437 104.152 11.8691C104.138 11.8757 104.015 11.811 104.015 11.7854C104.015 11.7593 104.125 10.7569 104.203 10.6732C104.281 10.5894 104.487 10.479 104.551 10.479C104.617 10.479 105.804 10.9507 106.35 13.1366C106.358 13.1366 106.597 14.1414 106.597 14.1414L106.668 13.5624C106.668 13.5624 106.925 11.151 106.973 10.9248C107.038 10.6157 107.273 10.0757 107.655 10.0689C108.036 10.0626 108.713 10.7036 108.713 10.7036L108.378 11.5851C108.378 11.5851 107.839 11.1008 107.626 11.0862C107.179 11.0563 107.096 11.7977 106.979 13.0647C106.863 14.3318 106.785 14.6166 106.701 14.8103C106.618 15.0043 106.526 15.1466 106.526 15.1466C106.121 13.0664 105.153 12.0567 105.153 12.0567L105.134 12.0829V12.0829Z" fill="#797979"/>
<path fill-rule="evenodd" clip-rule="evenodd" d="M86.0848 15.6575C86.0848 15.6575 85.8648 15.7408 85.7706 15.8613C85.677 15.9806 84.9814 16.8847 84.5879 18.4856C84.1808 20.148 85.1059 20.4455 85.1059 20.4455C85.1059 20.4455 85.6969 20.7226 86.2321 19.3971C86.2321 19.3885 86.4291 18.9616 86.4194 18.731C86.4194 18.731 86.4115 18.5511 86.2669 18.6796C85.998 18.9165 86.0465 19.219 85.9499 19.3286C85.7708 19.5341 85.762 19.5085 85.7027 19.5255C85.6427 19.5425 84.7765 19.5146 85.0505 18.1899C85.3646 17.1918 85.5308 16.8594 85.8078 16.2676C85.8078 16.2503 86.0848 15.6575 86.0848 15.6575L86.0848 15.6575Z" fill="#797979"/>
<path fill-rule="evenodd" clip-rule="evenodd" d="M45.3297 19.7049C45.3297 19.7049 45.1094 19.7883 45.0156 19.9083C44.9215 20.0279 44.2255 20.9317 43.8328 22.5327C43.425 24.1952 44.3505 24.492 44.3505 24.492C44.3505 24.492 44.9419 24.7691 45.4769 23.4446C45.477 23.436 45.6735 23.0084 45.6648 22.7781C45.6649 22.7781 45.6559 22.5982 45.5111 22.7266C45.2424 22.9636 45.2913 23.2658 45.1947 23.3757C45.0157 23.581 45.0068 23.5553 44.9472 23.5723C44.8875 23.5896 44.0214 23.5614 44.2946 22.2372C44.6092 21.2389 44.7756 20.9062 45.0526 20.3147C45.0526 20.2977 45.3297 19.7048 45.3297 19.7048V19.7049V19.7049Z" fill="#797979"/>
<path fill-rule="evenodd" clip-rule="evenodd" d="M93.9852 9.00197C93.9852 9.00197 88.3376 10.9752 85.8197 11.86C83.3006 12.7447 78.5823 14.7862 78.5823 14.7862L78.1289 16.0112C78.1289 16.0112 91.9664 10.5899 93.0782 10.3854C93.056 10.3626 93.9851 9.00211 93.9852 9.00195L93.9852 9.00197Z" fill="#797979"/>
<path fill-rule="evenodd" clip-rule="evenodd" d="M116.65 23.9184C114.822 24.5862 112.061 25.1657 112.061 25.1657C112.061 25.1657 111.041 21.8955 111.094 21.6496C111.147 21.403 111.604 20.6828 112.271 20.4539C112.94 20.2258 114.368 20.1402 115.841 20.8762C117.257 21.5837 119.52 22.5649 119.725 22.6164C119.941 22.6707 120.059 22.7043 120.059 22.7043C120.059 22.7043 116.991 23.7939 116.65 23.9184L116.65 23.9184L116.65 23.9184ZM96.6431 24.8876C96.6202 24.8686 96.5597 24.7309 96.6105 24.676C96.6613 24.6212 96.979 23.903 97.8253 24.0918C97.8396 24.0918 98.8675 24.4703 99.2193 25.2187C99.2193 25.2187 97.2691 25.4027 96.6431 24.8876H96.6431ZM124.925 21.585C124.02 21.4735 121.138 20.8329 118.019 19.2179C114.901 17.6031 113.273 18.0349 113.23 18.0485C110.196 18.8149 110.14 22.1973 110.168 22.6429C110.196 23.0883 110.739 25.1071 110.739 25.1071C110.739 25.1071 110.48 25.0343 110.443 25.0343C108.199 24.1145 106.763 21.6491 106.542 21.3181C104.665 18.1528 100.727 14.0684 100.36 13.6631C99.9914 13.2587 96.606 10.0934 96.606 10.0934L98.6305 9.02625C104.85 6.37654 110.909 4.65943 113.976 4.24225C116.136 3.94858 115.853 5.41978 115.742 5.56711C115.632 5.71392 114.614 7.48055 114.467 7.70138C114.32 7.92217 113.006 10.5697 112.724 11.3818C112.284 12.6575 112.455 12.9762 112.455 12.9762C112.455 12.9762 112.872 12.1541 112.872 12.1179C113.486 10.67 114.663 8.58431 115.669 6.85503C116.303 5.7636 117.091 4.75748 117.178 3.0281C117.266 1.25401 112.504 2.29167 112.43 2.32876C102.886 4.58575 96.1267 8.14315 96.1267 8.14315L95.3913 9.50442L94.8767 11.1608C94.8767 11.1608 96.9371 13.663 96.9737 13.663C99.8692 17.1472 103.569 23.0512 103.598 23.158C103.671 23.4275 103.843 23.6976 103.696 23.869C103.384 24.2337 101.317 24.8751 101.317 24.8751L101.133 24.5567C98.0046 18.889 95.5386 23.6367 95.4648 23.9307C94.5204 25.8076 95.5032 26.633 95.5032 26.6693C96.7663 28.3725 100.069 27.2426 100.179 27.3898C100.29 27.5376 100.476 28.0931 100.476 28.1305C96.1308 32.8615 91.5615 33.9892 90.7676 34.051C86.2013 34.3772 86.4646 30.5514 86.6119 29.2203C86.7467 28.0133 87.6656 25.2093 87.6656 25.2093L87.2407 25.6164C87.2407 25.6164 87.1847 25.734 87.0378 25.9912C86.0202 27.9085 85.762 30.553 85.762 30.9212C85.6874 37.5935 91.0617 37.4854 95.2992 34.5624C99.659 31.5553 100.283 30.4878 100.827 29.6642C101.259 29.0099 101.481 26.9727 101.481 26.9727L103.152 26.2348C103.152 26.2348 104.182 25.4413 104.377 23.743C104.572 22.0448 104.071 21.1258 104.071 21.1258L104.098 20.8754C104.098 20.8754 105.268 22.8657 107.231 25.3576C109.194 27.85 111.365 27.6403 111.365 27.6403L111.518 29.2414L111.699 29.1861C111.699 29.1861 111.768 29.1717 111.936 28.7824C112.102 28.3921 112.136 27.5009 112.136 27.5009C112.136 27.5007 112.687 27.3641 112.7 27.3776C114.786 27.0345 120.25 24.2296 122.391 23.8451C123.348 23.6733 124.648 23.869 124.648 23.869L125.711 21.64C125.68 21.6527 125.534 21.6599 124.924 21.585H124.925L124.925 21.585ZM125.718 21.6265L125.712 21.6401C125.728 21.6338 125.718 21.6265 125.718 21.6265Z" fill="#797979"/>
<path fill-rule="evenodd" clip-rule="evenodd" d="M6.78338 41.88C6.4117 41.666 5.9576 41.5595 5.42196 41.5595C5.06514 41.5595 4.70936 41.6359 4.3571 41.7876C4.00324 41.9387 3.68786 42.1662 3.41284 42.4701C3.13684 42.7725 2.91439 43.1506 2.74282 43.6062C2.5727 44.0601 2.48769 44.595 2.48769 45.2085C2.48769 45.6747 2.55069 46.1076 2.67921 46.504C2.80789 46.9006 2.99085 47.2435 3.23091 47.5352C3.4721 47.8268 3.76774 48.0533 4.11544 48.2167C4.46428 48.3801 4.8643 48.461 5.31306 48.461C5.41538 48.461 5.5295 48.456 5.65771 48.4444C5.78623 48.4332 5.90942 48.4198 6.02939 48.4036C6.15097 48.3885 6.2609 48.3661 6.36155 48.3388C6.4621 48.3126 6.53608 48.2831 6.58234 48.2514C6.59596 48.1582 6.60404 48.0416 6.60824 47.9004C6.61181 47.7617 6.61295 47.6055 6.61295 47.4337C6.61295 46.804 6.60192 46.3384 6.58011 46.039C6.55871 45.7388 6.54447 45.5342 6.53722 45.4249C6.61559 45.4405 6.71853 45.4544 6.84643 45.4667C6.97365 45.4772 7.15854 45.4834 7.39973 45.4834C7.67879 45.4834 7.88797 45.4774 8.02349 45.4667C8.16077 45.4544 8.26779 45.4405 8.3442 45.4249C8.32866 45.4879 8.31556 45.5889 8.30359 45.7288C8.29178 45.8682 8.28256 46.0301 8.2751 46.2123C8.26634 46.3953 8.26116 46.5894 8.25629 46.7957C8.25308 47.002 8.25142 47.1979 8.25142 47.384V47.769C8.25142 47.9629 8.25303 48.1442 8.25614 48.3109C8.26002 48.4783 8.26779 48.5976 8.28121 48.6662C7.76982 48.815 7.25132 48.9304 6.72796 49.0159C6.20392 49.1012 5.68558 49.1441 5.17418 49.1441C4.50655 49.1441 3.89092 49.0565 3.32871 48.8814C2.76567 48.7069 2.28085 48.4514 1.87321 48.1124C1.46542 47.7755 1.14782 47.3668 0.918899 46.8887C0.6905 46.4097 0.576172 45.8721 0.576172 45.2736C0.576172 44.5346 0.697753 43.8882 0.942521 43.3323C1.18744 42.7763 1.52484 42.3139 1.95557 41.9453C2.38585 41.5761 2.89678 41.2984 3.48795 41.1114C4.07767 40.9253 4.71567 40.8315 5.39833 40.8315C5.98759 40.8315 6.49899 40.8924 6.92972 41.0138C7.36067 41.1354 7.78607 41.3094 8.20521 41.5366C8.14388 41.7378 8.08332 41.9358 8.02602 42.1303C7.96712 42.3246 7.91916 42.5224 7.87984 42.7249H7.71635C7.46883 42.3764 7.15672 42.0936 6.78343 41.8799L6.78338 41.88L6.78338 41.88Z" fill="#797979"/>
<path fill-rule="evenodd" clip-rule="evenodd" d="M16.2942 43.3946C16.1699 42.9936 15.9977 42.654 15.7762 42.3741C15.5538 42.094 15.2871 41.8794 14.9715 41.7266C14.6566 41.5749 14.3151 41.4989 13.9408 41.4989C13.5456 41.4989 13.1901 41.5954 12.8748 41.7845C12.5614 41.9752 12.2948 42.2345 12.0775 42.562C11.8601 42.8875 11.6953 43.2698 11.5838 43.7102C11.4711 44.1497 11.4138 44.6182 11.4138 45.1151C11.4138 45.737 11.4789 46.2624 11.6128 46.69C11.7444 47.1184 11.9226 47.4619 12.1476 47.7219C12.3728 47.9817 12.6333 48.1708 12.9274 48.2867C13.2228 48.4039 13.5335 48.4614 13.8602 48.4614C14.2094 48.4614 14.5437 48.3889 14.8611 48.2406C15.1792 48.0921 15.4575 47.8679 15.6945 47.5646C15.931 47.2605 16.1208 46.8764 16.2644 46.4095C16.409 45.9433 16.4806 45.3924 16.4806 44.7543C16.4806 44.2479 16.4181 43.7956 16.2942 43.3946L16.2942 43.3946ZM9.82291 43.3852C10.0359 42.8798 10.3372 42.4371 10.7251 42.0566C11.1152 41.6757 11.5837 41.3763 12.135 41.1589C12.6873 40.9419 13.3004 40.832 13.9766 40.832C14.598 40.832 15.1764 40.9185 15.7118 41.0886C16.2478 41.2604 16.7133 41.5152 17.1103 41.8589C17.5063 42.2001 17.8192 42.6335 18.0486 43.1581C18.277 43.6829 18.3917 44.2954 18.3917 44.9947C18.3917 45.577 18.282 46.1212 18.0601 46.626C17.8385 47.1312 17.5316 47.573 17.1393 47.95C16.7464 48.3264 16.2794 48.6197 15.735 48.83C15.1919 49.0408 14.5937 49.1446 13.9409 49.1446C13.3276 49.1446 12.7514 49.0693 12.2111 48.9181C11.6715 48.7664 11.2018 48.5205 10.8013 48.1836C10.4011 47.8445 10.0852 47.4134 9.85229 46.8892C9.61917 46.3639 9.50293 45.7371 9.50293 45.0065C9.50293 44.4313 9.60913 43.891 9.82297 43.3852H9.82291L9.82291 43.3852Z" fill="#797979"/>
<path fill-rule="evenodd" clip-rule="evenodd" d="M23.9348 43.858C24.3154 42.8586 24.6582 41.9022 24.9612 40.9841C25.1556 41.0243 25.3254 41.0439 25.4729 41.0439C25.6207 41.0439 25.7913 41.0243 25.9861 40.9841C25.7913 41.4414 25.5579 41.9936 25.2866 42.6389C25.0148 43.2847 24.7318 43.9685 24.4362 44.6906C24.1417 45.4146 23.8494 46.1492 23.5629 46.8948C23.2753 47.6398 23.0195 48.341 22.7937 48.9933C22.6386 48.9727 22.468 48.9627 22.2807 48.9627C22.0952 48.9627 21.9231 48.9727 21.7687 48.9933C21.6517 48.6822 21.5097 48.3052 21.3438 47.8624C21.1759 47.4196 20.9977 46.9489 20.8081 46.4519C20.6164 45.954 20.4165 45.4453 20.2076 44.9237C19.998 44.4034 19.7961 43.9005 19.6014 43.4147C19.4073 42.9289 19.2247 42.4756 19.0537 42.0566C18.8834 41.6367 18.7358 41.2781 18.6118 40.9841C18.7904 40.9994 18.9665 41.0142 19.142 41.026C19.3166 41.0382 19.4882 41.0439 19.66 41.0439C19.8303 41.0439 20.0016 41.0384 20.1728 41.026C20.3438 41.0142 20.5137 40.9993 20.6854 40.9841C20.8175 41.4187 20.9667 41.8777 21.1335 42.3602C21.3014 42.8415 21.4734 43.3328 21.6515 43.8336C21.8304 44.3355 22.0154 44.8385 22.2048 45.3432C22.3955 45.8496 22.5795 46.3466 22.7586 46.8363C23.1621 45.8496 23.5555 44.857 23.9348 43.8581V43.858L23.9348 43.858Z" fill="#797979"/>
<path fill-rule="evenodd" clip-rule="evenodd" d="M27.0396 42.4955C27.0245 41.9934 27.0017 41.4894 26.9708 40.9851C27.3216 40.9924 27.6683 41.0047 28.0109 41.0209C28.3544 41.0376 28.7008 41.0448 29.0505 41.0448C29.6245 41.0448 30.1359 41.0393 30.5824 41.027C31.0286 41.0152 31.3295 41.0003 31.4855 40.9851C31.4549 41.1096 31.4396 41.2725 31.4396 41.4759C31.4397 41.5998 31.4426 41.6974 31.4511 41.7665C31.458 41.8379 31.4695 41.9143 31.4856 42.0012C31.2598 41.9851 31.0135 41.97 30.745 41.9549C30.4785 41.9387 30.2172 41.9238 29.9642 41.9075C29.7128 41.8931 29.4852 41.8807 29.2838 41.8725C29.0815 41.8652 28.9376 41.8613 28.8527 41.8613C28.8202 42.2878 28.8014 42.7107 28.7975 43.1295C28.7939 43.5489 28.7912 43.971 28.7912 44.3983C29.2964 44.3899 29.7528 44.3792 30.1602 44.3637C30.568 44.3486 30.9929 44.3297 31.4365 44.3067C31.4125 44.439 31.3978 44.5398 31.3889 44.6096C31.3811 44.6794 31.3772 44.7519 31.3772 44.8304C31.3772 44.8928 31.3835 44.9565 31.395 45.0233C31.4075 45.0886 31.4201 45.1829 31.4365 45.3078C30.5506 45.2375 29.6692 45.2013 28.7911 45.2013C28.7911 45.4501 28.789 45.6966 28.7842 45.9458C28.7788 46.194 28.7765 46.4423 28.7765 46.6909C28.7765 47.195 28.7866 47.6792 28.8066 48.1443C29.2494 48.1443 29.6915 48.1331 30.1339 48.1115C30.5777 48.0903 31.0246 48.0545 31.4745 48.0033C31.4594 48.0887 31.4471 48.1667 31.4395 48.2365C31.4313 48.3061 31.4283 48.4032 31.4283 48.5275C31.4283 48.6525 31.4312 48.749 31.4395 48.8198C31.4471 48.8889 31.4594 48.9481 31.4745 48.9943C31.2657 48.9842 31.0063 48.9765 30.6992 48.971C30.3936 48.9659 29.9717 48.9637 29.436 48.9637C28.9622 48.9637 28.5777 48.9637 28.2836 48.9637C27.9969 48.9637 27.7669 48.9637 27.5925 48.9637C27.4183 48.9637 27.2857 48.9659 27.1976 48.971C27.1081 48.9765 27.0333 48.9842 26.9707 48.9943C27.0016 48.5125 27.0245 48.0205 27.0395 47.5198C27.0549 47.0185 27.063 46.4455 27.063 45.7993V44.2137C27.063 43.5679 27.0549 42.9957 27.0395 42.4954L27.0395 42.4955L27.0396 42.4955Z" fill="#797979"/>
<path fill-rule="evenodd" clip-rule="evenodd" d="M36.4535 42.3612C36.3824 42.1604 36.2767 42.0065 36.1335 41.9022C35.9895 41.7969 35.8027 41.7293 35.5735 41.6981C35.3446 41.6664 35.071 41.6506 34.7529 41.6506C34.7322 42.7064 34.7225 43.7632 34.7225 44.8195C34.769 44.8268 34.814 44.8325 34.8564 44.8375C34.8985 44.8414 34.9397 44.843 34.9784 44.843C35.489 44.843 35.8808 44.7052 36.1516 44.4303C36.4221 44.1541 36.5591 43.7365 36.5591 43.1777C36.5591 42.8358 36.523 42.5637 36.4535 42.3612L36.4535 42.3612ZM34.7225 45.3236V45.8012C34.7225 46.4458 34.7303 47.0185 34.7457 47.5189C34.7612 48.0214 34.7827 48.5121 34.814 48.9934C34.6807 48.9728 34.5381 48.9627 34.3829 48.9627C34.2266 48.9627 34.0522 48.9627 33.8581 48.9627C33.6637 48.9627 33.4888 48.9627 33.3333 48.9627C33.178 48.9627 33.0352 48.9728 32.9028 48.9934C32.9329 48.5116 32.9558 48.0196 32.9702 47.5189C32.9859 47.0176 32.9941 46.4446 32.9941 45.7984V44.2127C32.9941 43.567 32.9859 42.9948 32.9702 42.4945C32.9558 41.9925 32.9329 41.4884 32.9028 40.9841C33.0352 40.9994 33.178 41.0142 33.3339 41.026C33.4889 41.0382 33.6648 41.0439 33.8589 41.0439C34.0684 41.0439 34.3078 41.0345 34.5764 41.0142C34.8445 40.9937 35.1765 40.9841 35.5731 40.9841C35.8685 40.9841 36.1215 40.9914 36.3304 41.0071C36.541 41.0227 36.7209 41.0467 36.873 41.0768C37.0246 41.1087 37.1575 41.1493 37.2696 41.1995C37.3817 41.2508 37.489 41.3099 37.59 41.3796C37.8234 41.5514 38.0083 41.7633 38.1441 42.016C38.2813 42.2685 38.3479 42.5698 38.3479 42.9188C38.3479 43.4861 38.1932 43.9491 37.8825 44.3058C37.5707 44.6639 37.1241 44.9178 36.541 45.0638C36.9127 45.7257 37.313 46.3828 37.7402 47.0409C38.1684 47.6973 38.595 48.3487 39.0215 48.9934C38.8435 48.9728 38.6688 48.9627 38.497 48.9627C38.3267 48.9627 38.1524 48.9627 37.974 48.9627C37.7949 48.9627 37.6178 48.9627 37.4438 48.9627C37.2681 48.9627 37.0925 48.9728 36.9127 48.9934L34.8275 45.3236H34.7226H34.7225H34.7225Z" fill="#797979"/>
<path fill-rule="evenodd" clip-rule="evenodd" d="M40.1941 41.9515C40.1783 41.5863 40.1661 41.264 40.1583 40.9844C40.3753 41.0246 40.5507 41.0442 40.682 41.0442C40.8158 41.0442 40.9899 41.0246 41.2076 40.9844C42.0556 41.9242 42.8938 42.8495 43.722 43.7585C44.5497 44.6681 45.3999 45.5927 46.2714 46.5343V45.5186V44.3882C46.2714 44.0077 46.2691 43.6319 46.2654 43.2628C46.2621 42.894 46.2587 42.5539 46.2545 42.2439C46.2508 41.9326 46.2426 41.6648 46.2315 41.4385C46.22 41.2131 46.2074 41.0615 46.1912 40.9844C46.4096 41.0245 46.5839 41.0441 46.7172 41.0441C46.8484 41.0441 47.0244 41.0245 47.242 40.9844C47.2001 41.691 47.1675 42.3308 47.1439 42.9012C47.1184 43.4724 47.0984 44.0122 47.0815 44.5163C47.0657 45.0216 47.0545 45.5208 47.0514 46.0149C47.0456 46.5085 47.0451 47.0356 47.0451 47.5949V48.9935C46.8899 48.973 46.73 48.9629 46.5677 48.9629C46.3959 48.9629 46.2451 48.973 46.1128 48.9935C44.5128 47.128 42.8166 45.2508 41.0223 43.3624C41.013 43.5878 41.0049 43.8131 41.0007 44.0373C40.9942 44.2643 40.9923 44.4935 40.9923 44.7271V46.0785C40.9923 46.5447 40.9942 46.9407 40.9985 47.2675C41.0019 47.5949 41.0085 47.8709 41.0173 48.0958C41.0262 48.3216 41.0336 48.5056 41.0429 48.6489C41.0513 48.7933 41.0602 48.9073 41.0683 48.9936C40.9749 48.973 40.882 48.9629 40.7892 48.9629C40.6955 48.9629 40.6063 48.9629 40.5209 48.9629C40.3421 48.9629 40.1639 48.973 39.9858 48.9936C40.0009 48.9311 40.0207 48.7098 40.0433 48.3284C40.0669 47.9479 40.092 47.484 40.1191 46.9363C40.1471 46.3874 40.1699 45.7934 40.1905 45.151C40.2086 44.5101 40.2191 43.895 40.2191 43.3051C40.2193 42.7673 40.2105 42.3179 40.1942 41.9514L40.1941 41.9515L40.1941 41.9515Z" fill="#797979"/>
<path fill-rule="evenodd" clip-rule="evenodd" d="M49.8335 46.3828C49.7707 47.2516 49.7081 48.1234 49.647 48.9934C49.5533 48.9728 49.4607 48.9627 49.3675 48.9627C49.2742 48.9627 49.1849 48.9627 49.0991 48.9627C49.0073 48.9627 48.9142 48.9627 48.826 48.9627C48.7359 48.9627 48.645 48.9728 48.5522 48.9934C48.7996 47.656 49.0208 46.3271 49.2165 45.0065C49.4106 43.684 49.5888 42.3445 49.7513 40.9841C49.8363 40.9994 49.9161 41.0142 49.9903 41.026C50.064 41.0382 50.1446 41.0439 50.2287 41.0439C50.2998 41.0439 50.3735 41.0384 50.4507 41.026C50.5288 41.0142 50.6096 40.9993 50.6954 40.9841C50.9048 41.4494 51.1241 41.9239 51.3538 42.4058C51.5833 42.8876 51.8114 43.3684 52.0412 43.8453C52.2702 44.3248 52.4996 44.794 52.7284 45.2506C52.9576 45.7102 53.1771 46.1452 53.3861 46.5562C53.8522 45.6862 54.3164 44.775 54.7788 43.8223C55.2405 42.8697 55.6816 41.9239 56.101 40.9841C56.2958 41.0243 56.4622 41.0439 56.6012 41.0439C56.7337 41.0439 56.8977 41.0243 57.0918 40.9841C57.1696 41.6529 57.2519 42.3718 57.3422 43.1403C57.4306 43.9105 57.5182 44.6618 57.6046 45.3963C57.6893 46.1312 57.7743 46.8166 57.8599 47.4541C57.9451 48.0921 58.0228 48.6053 58.0935 48.9933C57.9382 48.9727 57.7805 48.9627 57.6221 48.9627C57.4625 48.9627 57.3051 48.9627 57.1495 48.9627C56.994 48.9627 56.8347 48.9627 56.6713 48.9627C56.5086 48.9627 56.345 48.9727 56.182 48.9933C56.1431 48.1931 56.0795 47.3259 55.991 46.3928C55.9014 45.4608 55.81 44.5351 55.7164 43.6183L55.6931 43.6181C55.25 44.5351 54.8159 45.438 54.3891 46.3231C53.9606 47.2094 53.5384 48.0994 53.119 48.9933C53.0797 48.9833 53.0423 48.9755 53.0081 48.97C52.9734 48.965 52.936 48.9627 52.8975 48.9627C52.8585 48.9627 52.8214 48.965 52.7871 48.97C52.752 48.9755 52.7144 48.9833 52.6762 48.9933C52.2563 48.1234 51.8399 47.2516 51.4239 46.3828C51.0075 45.5105 50.5789 44.6288 50.1366 43.736L50.1133 43.7358C49.9881 44.6288 49.8965 45.5105 49.8335 46.3828L49.8335 46.3828Z" fill="#797979"/>
<path fill-rule="evenodd" clip-rule="evenodd" d="M59.4035 42.4955C59.3881 41.9934 59.3653 41.4894 59.3355 40.9851C59.685 40.9924 60.0322 41.0047 60.3738 41.0209C60.7182 41.0376 61.0643 41.0448 61.4142 41.0448C61.9888 41.0448 62.4994 41.0393 62.9453 41.027C63.3926 41.0152 63.694 41.0003 63.8494 40.9851C63.818 41.1096 63.802 41.2725 63.802 41.4759C63.802 41.5998 63.8065 41.6974 63.814 41.7665C63.8226 41.8379 63.8334 41.9143 63.8494 42.0012C63.6237 41.9851 63.377 41.97 63.1086 41.9549C62.842 41.9387 62.5809 41.9238 62.3291 41.9075C62.0755 41.8931 61.8493 41.8807 61.6473 41.8725C61.4444 41.8652 61.3012 41.8613 61.2154 41.8613C61.1831 42.2878 61.1659 42.7107 61.1612 43.1295C61.1573 43.5489 61.1555 43.971 61.1555 44.3983C61.6598 44.3899 62.1155 44.3792 62.524 44.3637C62.9318 44.3486 63.3588 44.3297 63.8002 44.3067C63.7769 44.439 63.7614 44.5398 63.7534 44.6096C63.7448 44.6794 63.7419 44.7519 63.7419 44.8304C63.7421 44.8928 63.7471 44.9565 63.7586 45.0233C63.7711 45.0886 63.7842 45.1829 63.8002 45.3078C62.9139 45.2375 62.0328 45.2013 61.1555 45.2013C61.1555 45.4501 61.1538 45.6966 61.1476 45.9458C61.1431 46.194 61.1402 46.4423 61.1402 46.6909C61.1402 47.195 61.1504 47.6792 61.1709 48.1443C61.613 48.1443 62.055 48.1331 62.4982 48.1115C62.9408 48.0903 63.3875 48.0545 63.8386 48.0033C63.8231 48.0887 63.8111 48.1667 63.8025 48.2365C63.7946 48.3061 63.7912 48.4032 63.7912 48.5275C63.7912 48.6525 63.7946 48.749 63.8025 48.8198C63.8111 48.8889 63.8231 48.9481 63.8386 48.9943C63.629 48.9842 63.3708 48.9765 63.0635 48.971C62.7575 48.9659 62.3348 48.9637 61.7997 48.9637C61.3257 48.9637 60.9425 48.9637 60.6479 48.9637C60.3618 48.9637 60.131 48.9637 59.9568 48.9637C59.781 48.9637 59.6502 48.9659 59.5616 48.971C59.472 48.9765 59.3967 48.9842 59.3354 48.9943C59.3652 48.5125 59.3881 48.0205 59.4035 47.5198C59.4183 47.0185 59.4263 46.4455 59.4263 45.7993V44.2137C59.4263 43.5679 59.4184 42.9957 59.4035 42.4954L59.4035 42.4955V42.4955Z" fill="#797979"/>
<path fill-rule="evenodd" clip-rule="evenodd" d="M65.4394 41.9515C65.4229 41.5863 65.4109 41.264 65.4035 40.9844C65.621 41.0246 65.7963 41.0442 65.9283 41.0442C66.0614 41.0442 66.2349 41.0246 66.4531 40.9844C67.3001 41.9242 68.139 42.8495 68.9676 43.7585C69.795 44.6681 70.6443 45.5927 71.5163 46.5343V45.5186V44.3882C71.5163 44.0077 71.5141 43.6319 71.5095 43.2628C71.5061 42.894 71.5021 42.5539 71.498 42.2439C71.4946 41.9326 71.4884 41.6648 71.4763 41.4385C71.4644 41.2131 71.4517 41.0615 71.437 40.9844C71.6546 41.0245 71.8299 41.0441 71.963 41.0441C72.0938 41.0441 72.2673 41.0245 72.4856 40.9844C72.4456 41.691 72.4124 42.3308 72.3884 42.9012C72.3627 43.4724 72.3428 44.0122 72.3273 44.5163C72.3096 45.0216 72.2999 45.5208 72.2953 46.0149C72.2902 46.5085 72.2902 47.0356 72.2902 47.5949V48.9935C72.1338 48.973 71.975 48.9629 71.8121 48.9629C71.6409 48.9629 71.4901 48.973 71.3576 48.9935C69.7587 47.128 68.0606 45.2508 66.2675 43.3624C66.2578 43.5878 66.2503 43.8131 66.2435 44.0373C66.2401 44.2643 66.2379 44.4935 66.2379 44.7271V46.0785C66.2379 46.5447 66.239 46.9407 66.2435 47.2675C66.2476 47.5949 66.2539 47.8709 66.263 48.0958C66.2704 48.3216 66.2801 48.5056 66.288 48.6489C66.2966 48.7933 66.3052 48.9073 66.3126 48.9936C66.2196 48.973 66.1281 48.9629 66.0334 48.9629C65.9414 48.9629 65.8511 48.9629 65.7661 48.9629C65.5879 48.9629 65.4092 48.973 65.231 48.9936C65.2458 48.9311 65.2659 48.7098 65.2881 48.3284C65.3116 47.9479 65.3378 47.484 65.3652 46.9363C65.3909 46.3874 65.4149 45.7934 65.4343 45.151C65.4537 44.5101 65.4641 43.895 65.4641 43.3051C65.4641 42.7673 65.4555 42.3179 65.4395 41.9514L65.4394 41.9515L65.4394 41.9515Z" fill="#797979"/>
<path fill-rule="evenodd" clip-rule="evenodd" d="M75.7957 42.2721C75.7921 42.0853 75.7831 41.9503 75.7671 41.8639C75.6507 41.8639 75.5068 41.8684 75.3353 41.8766C75.1641 41.8833 74.9819 41.8928 74.7888 41.9034C74.5936 41.914 74.396 41.9309 74.1938 41.9487C73.9929 41.9677 73.8054 41.9882 73.6348 42.011C73.6506 41.9257 73.6637 41.8404 73.6752 41.7535C73.6872 41.667 73.6929 41.5828 73.6929 41.498C73.693 41.4127 73.6872 41.3262 73.6752 41.241C73.6639 41.1557 73.6506 41.0702 73.6348 40.9849C73.8991 40.9922 74.1379 41.0017 74.3525 41.0083C74.5649 41.0177 74.7825 41.0229 75.0037 41.0273C75.2246 41.0312 75.4657 41.0352 75.7266 41.0391C75.9876 41.0435 76.3005 41.0446 76.6649 41.0446C77.031 41.0446 77.3451 41.0435 77.6061 41.0391C77.866 41.0351 78.1059 41.0313 78.3239 41.0273C78.5415 41.0227 78.7534 41.0179 78.9589 41.0083C79.164 41.0017 79.3866 40.9922 79.6277 40.9849C79.6128 41.0702 79.5986 41.1557 79.5865 41.241C79.5757 41.3263 79.57 41.4128 79.57 41.498C79.57 41.5827 79.5757 41.667 79.5865 41.7535C79.5985 41.8404 79.6128 41.9257 79.6277 42.011C79.4723 41.9882 79.2987 41.9677 79.1029 41.9487C78.9088 41.9307 78.7174 41.914 78.5278 41.9034C78.3354 41.8929 78.1565 41.8833 77.9852 41.8766C77.814 41.8683 77.6705 41.8639 77.5535 41.8639C77.5467 41.9029 77.5399 41.9576 77.537 42.0272C77.5324 42.097 77.5302 42.1795 77.5302 42.2721V42.8894V45.8018C77.5302 46.4465 77.5375 47.0192 77.553 47.5196C77.5673 48.0221 77.5906 48.5127 77.6215 48.994C77.4896 48.9735 77.3468 48.9634 77.1909 48.9634C77.0362 48.9634 76.8608 48.9634 76.665 48.9634C76.472 48.9634 76.2972 48.9634 76.1418 48.9634C75.9865 48.9634 75.8426 48.9735 75.71 48.994C75.7405 48.5127 75.7633 48.0221 75.7791 47.5196C75.7936 47.0192 75.802 46.4464 75.802 45.8018L75.8021 42.8894C75.8021 42.6631 75.7997 42.4583 75.7958 42.2721H75.7957H75.7957Z" fill="#797979"/>
<path fill-rule="evenodd" clip-rule="evenodd" d="M90.3065 43.3946C90.1816 42.9936 90.0097 42.654 89.7869 42.3741C89.567 42.094 89.2987 41.8794 88.9851 41.7266C88.6699 41.5749 88.3256 41.4989 87.9532 41.4989C87.5581 41.4989 87.2022 41.5954 86.8869 41.7845C86.5735 41.9752 86.3073 42.2345 86.0903 42.562C85.8716 42.8875 85.7065 43.2698 85.5946 43.7102C85.4827 44.1497 85.4256 44.6182 85.4256 45.1151C85.4256 45.737 85.4912 46.2624 85.6242 46.69C85.7568 47.1184 85.9349 47.4619 86.1588 47.7219C86.3862 47.9817 86.6447 48.1708 86.9411 48.2867C87.2348 48.4039 87.5455 48.4614 87.8715 48.4614C88.2221 48.4614 88.5551 48.3889 88.8737 48.2406C89.1907 48.0921 89.4699 47.8679 89.7064 47.5646C89.9434 47.2605 90.1337 46.8764 90.2764 46.4095C90.4215 45.9433 90.4916 45.3924 90.4916 44.7543C90.4916 44.2479 90.4312 43.7956 90.3065 43.3946V43.3946ZM83.8343 43.3852C84.0496 42.8798 84.3489 42.4371 84.7378 42.0566C85.1262 41.6757 85.5968 41.3763 86.1479 41.1589C86.6991 40.9419 87.3118 40.832 87.9885 40.832C88.6093 40.832 89.189 40.9185 89.724 41.0886C90.2604 41.2604 90.7263 41.5152 91.1227 41.8589C91.5174 42.2001 91.8308 42.6335 92.061 43.1581C92.2901 43.6829 92.4031 44.2954 92.4031 44.9947C92.4031 45.577 92.294 46.1212 92.0712 46.626C91.8498 47.1312 91.5442 47.573 91.1524 47.95C90.7595 48.3264 90.2911 48.6197 89.7486 48.83C89.2033 49.0408 88.6052 49.1446 87.9532 49.1446C87.3398 49.1446 86.7635 49.0693 86.2238 48.9181C85.6825 48.7664 85.2125 48.5205 84.8126 48.1836C84.4129 47.8445 84.0977 47.4134 83.8642 46.8892C83.631 46.3639 83.5146 45.7371 83.5146 45.0065C83.5146 44.4313 83.6208 43.891 83.8344 43.3852H83.8343V43.3852Z" fill="#797979"/>
<path fill-rule="evenodd" clip-rule="evenodd" d="M93.7126 42.4955C93.6977 41.9934 93.6749 41.4894 93.6446 40.9851C93.9947 40.9924 94.3425 41.0047 94.6845 41.0209C95.0273 41.0376 95.3727 41.0448 95.7233 41.0448C96.2985 41.0448 96.8084 41.0393 97.2544 41.027C97.7022 41.0152 98.0036 41.0003 98.1591 40.9851C98.1271 41.1096 98.1116 41.2725 98.1116 41.4759C98.1116 41.5998 98.1156 41.6974 98.1231 41.7665C98.131 41.8379 98.143 41.9143 98.1591 42.0012C97.9329 41.9851 97.6862 41.97 97.4189 41.9549C97.1505 41.9387 96.89 41.9238 96.6376 41.9075C96.3857 41.8931 96.1585 41.8807 95.9563 41.8725C95.7547 41.8652 95.6102 41.8613 95.5246 41.8613C95.4949 42.2878 95.4755 42.7107 95.4715 43.1295C95.468 43.5489 95.4651 43.971 95.4651 44.3983C95.9724 44.3899 96.4287 44.3792 96.8365 44.3637C97.2436 44.3486 97.6686 44.3297 98.1116 44.3067C98.0888 44.4389 98.0739 44.5398 98.0642 44.6096C98.0574 44.6794 98.0545 44.7519 98.0545 44.8304C98.0547 44.8928 98.0592 44.9565 98.0723 45.0233C98.0825 45.0886 98.0963 45.1829 98.1116 45.3078C97.226 45.2375 96.3436 45.2013 95.4651 45.2013L95.4653 45.7959C95.4653 46.4423 95.4737 47.0161 95.4892 47.5175C95.5035 48.02 95.5263 48.5124 95.5554 48.9942C95.4235 48.9736 95.2812 48.9636 95.1248 48.9636C94.9683 48.9636 94.7941 48.9636 94.5994 48.9636C94.4064 48.9636 94.2304 48.9636 94.0768 48.9636C93.9192 48.9636 93.777 48.9736 93.6445 48.9942C93.6748 48.5124 93.6976 48.0204 93.7125 47.5197C93.7274 47.0184 93.7343 46.4454 93.7343 45.7992V44.2136C93.7343 43.5678 93.7273 42.9956 93.7125 42.4953L93.7126 42.4955V42.4955Z" fill="#797979"/>
<path fill-rule="evenodd" clip-rule="evenodd" d="M104.634 46.6608V47.3602C104.634 47.5867 104.636 47.7924 104.642 47.9792C104.647 48.1656 104.649 48.2865 104.649 48.3412C104.767 48.3485 104.906 48.3546 105.07 48.3608C105.232 48.3685 105.435 48.3708 105.677 48.3708C106.555 48.3708 107.25 48.0725 107.763 47.4729C108.276 46.8739 108.532 45.9681 108.532 44.7552C108.532 44.2734 108.469 43.8423 108.341 43.4619C108.212 43.0798 108.032 42.7557 107.799 42.4875C107.565 42.2193 107.285 42.013 106.958 41.8696C106.631 41.7252 106.266 41.6527 105.862 41.6527C105.582 41.6527 105.355 41.6588 105.18 41.6711C105.005 41.6828 104.829 41.6962 104.649 41.7112C104.649 41.7653 104.647 41.8869 104.642 42.0732C104.636 42.26 104.635 42.4708 104.635 42.7039L104.634 43.4032V43.9878V46.0641V46.6608L104.634 46.6608L104.634 46.6608ZM102.882 42.4942C102.867 41.9922 102.844 41.4881 102.814 40.9839C102.947 40.9991 103.09 41.014 103.246 41.0258C103.402 41.0379 103.577 41.0436 103.772 41.0436C104.027 41.0436 104.313 41.0342 104.633 41.014C104.951 40.9934 105.368 40.9839 105.88 40.9839C106.549 40.9839 107.157 41.0436 107.705 41.1647C108.252 41.2846 108.725 41.4882 109.121 41.7758C109.519 42.0637 109.825 42.4513 110.042 42.9365C110.26 43.4228 110.369 44.0346 110.369 44.7725C110.369 45.4171 110.262 46.0005 110.047 46.5214C109.834 47.0422 109.544 47.4867 109.174 47.856C108.804 48.2263 108.378 48.5068 107.892 48.7004C107.406 48.895 106.886 48.9931 106.335 48.9931C105.752 48.9931 105.254 48.9881 104.842 48.9776C104.431 48.9675 104.073 48.9625 103.772 48.9625C103.577 48.9625 103.402 48.9625 103.246 48.9625C103.09 48.9625 102.946 48.9725 102.814 48.9931C102.844 48.5113 102.866 48.0194 102.882 47.5187C102.898 47.0173 102.905 46.4444 102.905 45.7981L102.905 44.2125C102.905 43.5667 102.898 42.9945 102.882 42.4942H102.882V42.4942Z" fill="#797979"/>
<path fill-rule="evenodd" clip-rule="evenodd" d="M114.128 48.9867C113.698 48.8823 113.324 48.7083 113.006 48.463C112.688 48.2187 112.437 47.9042 112.256 47.5194C112.074 47.1339 111.983 46.6659 111.983 46.1139C111.983 45.8044 111.986 45.5244 111.99 45.2802C111.996 45.0364 111.998 44.8077 111.998 44.598C111.998 44.3884 112 44.1865 112.006 43.9929C112.011 43.7988 112.015 43.5965 112.015 43.3857C112.015 42.7564 112.01 42.2485 112.001 41.8593C111.995 41.4698 111.983 41.1789 111.967 40.9846C112.123 40.9998 112.283 41.0147 112.445 41.0265C112.607 41.0387 112.767 41.0443 112.921 41.0443C113.077 41.0443 113.236 41.0389 113.398 41.0265C113.561 41.0147 113.721 40.9998 113.875 40.9846C113.798 41.738 113.752 42.4398 113.736 43.0878C113.72 43.7363 113.712 44.3945 113.712 45.0631C113.713 45.7704 113.764 46.3392 113.864 46.7759C113.963 47.2108 114.114 47.5456 114.31 47.7831C114.508 48.0201 114.749 48.1775 115.037 48.256C115.323 48.333 115.656 48.3715 116.036 48.3715C116.499 48.3715 116.863 48.256 117.127 48.0223C117.39 47.7888 117.59 47.4774 117.724 47.0904C117.86 46.7017 117.943 46.2562 117.974 45.7553C118.005 45.2549 118.02 44.7323 118.02 44.1881C118.02 43.6528 118.012 43.1184 117.997 42.5869C117.983 42.0548 117.96 41.5201 117.929 40.9846C118.039 40.9999 118.144 41.0147 118.246 41.0265C118.347 41.0387 118.442 41.0444 118.528 41.0444C118.628 41.0444 118.725 41.0389 118.821 41.0265C118.913 41.0147 119.011 40.9998 119.113 40.9846C119.095 41.1554 119.078 41.3851 119.062 41.6718C119.044 41.959 119.027 42.2925 119.01 42.669C118.993 43.0454 118.978 43.4626 118.965 43.9172C118.953 44.3722 118.945 44.8502 118.945 45.3567C118.945 46.709 118.656 47.6783 118.074 48.2644C117.494 48.8522 116.641 49.1451 115.517 49.1451C115.02 49.1451 114.558 49.0933 114.128 48.9867L114.128 48.9867V48.9867Z" fill="#797979"/>
<path fill-rule="evenodd" clip-rule="evenodd" d="M124.337 45.5592C124.094 45.2909 123.739 45.1564 123.276 45.1564C123.166 45.1564 123.074 45.1598 122.997 45.1632C122.92 45.1694 122.846 45.1721 122.776 45.1721C122.776 45.3354 122.774 45.5033 122.769 45.6796C122.764 45.8536 122.76 46.061 122.76 46.3021C122.76 46.4887 122.764 46.6796 122.769 46.8737C122.774 47.0676 122.776 47.2569 122.776 47.4453C122.776 47.6321 122.779 47.8022 122.783 47.9578C122.789 48.1129 122.791 48.2411 122.791 48.3426C122.899 48.3515 122.999 48.3593 123.092 48.3643C123.186 48.3699 123.297 48.3722 123.428 48.3722C123.598 48.3722 123.759 48.3376 123.915 48.2673C124.069 48.1971 124.204 48.0933 124.32 47.9578C124.435 47.8212 124.529 47.6549 124.598 47.461C124.668 47.2657 124.702 47.0392 124.702 46.7815C124.702 46.2361 124.582 45.829 124.337 45.5591V45.5592H124.337ZM124.562 42.4834C124.52 42.3183 124.448 42.1734 124.347 42.0534C124.245 41.9334 124.117 41.837 123.961 41.7623C123.806 41.6898 123.612 41.6518 123.378 41.6518C123.207 41.6518 123.089 41.6541 123.022 41.658C122.956 41.663 122.883 41.672 122.806 41.6869C122.791 41.9743 122.78 42.2658 122.771 42.5593C122.764 42.8531 122.76 43.1024 122.76 43.3032C122.76 43.5123 122.764 43.7119 122.769 43.9016C122.774 44.0928 122.776 44.2876 122.776 44.4883H123.3C123.463 44.4883 123.623 44.4587 123.782 44.3957C123.942 44.3338 124.084 44.2424 124.206 44.1229C124.332 44.0031 124.433 43.8492 124.51 43.6628C124.588 43.4778 124.627 43.2602 124.627 43.0125C124.627 42.8269 124.606 42.6506 124.562 42.4833L124.562 42.4834V42.4834ZM121.02 42.4957C121.002 41.9937 120.977 41.4896 120.94 40.9854C121.073 41.0006 121.216 41.0154 121.372 41.0273C121.528 41.0394 121.704 41.0451 121.898 41.0451C122.233 41.0451 122.581 41.0357 122.949 41.0154C123.315 40.9949 123.664 40.9854 123.999 40.9854C124.348 40.9854 124.668 41.02 124.955 41.0898C125.244 41.16 125.492 41.2649 125.703 41.4103C125.913 41.5531 126.073 41.7394 126.187 41.9686C126.3 42.1974 126.356 42.4722 126.356 42.7902C126.356 43.1086 126.289 43.3819 126.156 43.6111C126.023 43.8403 125.86 44.0305 125.669 44.1815C125.478 44.3327 125.271 44.4516 125.047 44.5362C124.825 44.6227 124.624 44.6808 124.443 44.7114L124.443 44.7321C124.621 44.7399 124.831 44.7805 125.072 44.8541C125.312 44.9289 125.541 45.0438 125.758 45.1988C125.975 45.3539 126.16 45.5558 126.31 45.7995C126.462 46.0454 126.538 46.3438 126.538 46.6934C126.538 47.114 126.463 47.4731 126.31 47.7675C126.16 48.0631 125.959 48.3047 125.706 48.4926C125.454 48.6789 125.165 48.8088 124.839 48.8829C124.513 48.9572 124.177 48.9944 123.826 48.9944C123.515 48.9944 123.227 48.9894 122.96 48.9789C122.692 48.9688 122.411 48.9638 122.116 48.9638C121.906 48.9638 121.69 48.9638 121.47 48.9638C121.249 48.9638 121.072 48.9738 120.94 48.9944C120.977 48.5126 121.002 48.0207 121.02 47.52C121.038 47.0186 121.046 46.4457 121.046 45.7994V44.2138C121.046 43.568 121.038 42.9958 121.02 42.4955V42.4957V42.4957Z" fill="#797979"/>
<path fill-rule="evenodd" clip-rule="evenodd" d="M130.171 43.174C129.969 43.6397 129.778 44.0986 129.601 44.5532C129.421 45.0071 129.247 45.4706 129.076 45.9437H131.209C131.037 45.4707 130.868 45.0072 130.701 44.5532C130.535 44.0986 130.357 43.6397 130.171 43.174H130.171V43.174ZM134.295 48.993C134.11 48.9724 133.932 48.9624 133.765 48.9624C133.598 48.9624 133.434 48.9624 133.271 48.9624C133.108 48.9624 132.941 48.9624 132.774 48.9624C132.608 48.9624 132.442 48.9724 132.279 48.993C132.155 48.6105 132.028 48.2202 131.896 47.822C131.763 47.4244 131.624 47.0255 131.476 46.6263C131.227 46.6156 130.98 46.609 130.731 46.604C130.483 46.5988 130.233 46.5967 129.986 46.5967C129.783 46.5967 129.582 46.5989 129.378 46.604C129.179 46.6088 128.975 46.6156 128.774 46.6263C128.619 47.0255 128.475 47.4244 128.343 47.822C128.212 48.22 128.09 48.6105 127.982 48.993C127.889 48.9724 127.797 48.9624 127.707 48.9624C127.619 48.9624 127.526 48.9624 127.433 48.9624C127.341 48.9624 127.247 48.9624 127.155 48.9624C127.062 48.9624 126.96 48.9724 126.852 48.993C126.944 48.7911 127.069 48.5112 127.224 48.1531C127.379 47.7957 127.549 47.3908 127.737 46.9401C127.923 46.489 128.123 46.0065 128.337 45.4879C128.55 44.9715 128.764 44.4494 128.976 43.9207C129.191 43.3915 129.401 42.8694 129.606 42.3569C129.812 41.8439 130 41.3659 130.171 40.9226C130.25 40.9386 130.322 40.9532 130.393 40.9649C130.463 40.9783 130.536 40.9838 130.614 40.9838C130.693 40.9838 130.766 40.9783 130.835 40.9649C130.906 40.9532 130.98 40.9387 131.057 40.9226C131.305 41.5839 131.572 42.2916 131.855 43.0446C132.138 43.7986 132.424 44.5398 132.711 45.2671C132.999 45.9938 133.278 46.6836 133.55 47.3372C133.822 47.9898 134.071 48.5425 134.295 48.993L134.295 48.993L134.295 48.993Z" fill="#797979"/>
<path fill-rule="evenodd" clip-rule="evenodd" d="M135.512 42.4955C135.498 41.9934 135.475 41.4894 135.445 40.9851C135.575 41.0003 135.721 41.0152 135.876 41.027C136.031 41.0391 136.206 41.0448 136.4 41.0448C136.594 41.0448 136.769 41.0393 136.924 41.027C137.079 41.0152 137.223 41.0003 137.355 40.9851C137.325 41.4894 137.302 41.9935 137.287 42.4955C137.272 42.9957 137.266 43.5679 137.266 44.2137V45.7992C137.266 46.4456 137.272 47.0185 137.287 47.5199C137.302 48.0206 137.325 48.5126 137.355 48.9943C137.223 48.9738 137.079 48.9637 136.924 48.9637C136.769 48.9637 136.594 48.9637 136.4 48.9637C136.206 48.9637 136.031 48.9637 135.876 48.9637C135.721 48.9637 135.575 48.9738 135.445 48.9943C135.475 48.5126 135.498 48.0206 135.512 47.5199C135.527 47.0185 135.535 46.4456 135.535 45.7993L135.536 44.2137C135.536 43.5679 135.527 42.9957 135.512 42.4955V42.4955Z" fill="#797979"/>
</svg>
