<svg width="149" height="40" viewBox="0 0 149 40" fill="none" xmlns="http://www.w3.org/2000/svg">
<path d="M41.1153 22.5941C41.2976 21.5197 41.414 20.418 41.414 19.299C41.414 18.304 41.3131 17.3284 41.1774 16.3703H33.3419C34.4028 15.3211 36.8814 12.8191 39.3562 10.3502C38.466 8.49213 37.3042 6.78345 35.933 5.29392L24.0265 17.2101C23.4543 17.7745 23.1421 18.4766 23.1421 19.299C23.1421 20.1019 23.4543 20.9068 24.0284 21.4654L35.8942 33.3447C37.2751 31.8571 38.433 30.1504 39.3291 28.2943C36.992 25.9766 34.3543 23.5988 33.3419 22.5941H41.1153Z" fill="#777777"/>
<path d="M18.2932 19.2982C18.2932 18.4759 17.9771 17.7738 17.3953 17.2094L5.48293 5.29319C4.10783 6.79435 2.94996 8.4914 2.05974 10.3494C4.5384 12.83 7.02289 15.3106 8.08185 16.3715H0.234679C0.100854 17.3277 0 18.3033 0 19.2982C0 20.4173 0.11831 21.5209 0.290924 22.5934H8.08185C7.07719 23.6 4.42397 25.9681 2.08689 28.2936C2.98875 30.1497 4.14081 31.8525 5.5256 33.344L17.3953 21.4666C17.9694 20.9061 18.2932 20.1012 18.2932 19.2982Z" fill="#777777"/>
<path d="M20.7068 21.7611C19.9 21.7611 19.1416 22.0733 18.5733 22.6474L6.71338 34.5093C8.19709 35.8863 9.89802 37.052 11.756 37.9441C14.2192 35.4791 16.6823 33.0237 17.7277 31.9725V39.7576C18.6994 39.905 19.6905 40 20.7068 40C21.8162 40 22.8926 39.8836 23.9457 39.7227V31.9725C24.9562 32.9694 27.3301 35.6187 29.6439 37.9441C31.5097 37.0539 33.201 35.8863 34.6982 34.5093L22.8208 22.6552C22.2584 22.0733 21.5175 21.7611 20.7068 21.7611Z" fill="#777777"/>
<path d="M20.7073 16.9316C21.5374 16.9316 22.3054 16.6019 22.8737 16.0104L34.7647 4.12908C33.2441 2.72296 31.5141 1.53987 29.6173 0.62637C27.8814 2.36997 25.3271 5.10659 23.9171 6.51271V3.10503C23.9171 1.38471 22.4625 -8.39892e-05 20.717 -8.39892e-05C18.9714 -8.39892e-05 17.6972 1.36144 17.6778 3.06237V6.51271C16.0603 4.90876 13.4226 2.26524 11.7973 0.62637C9.90432 1.53987 8.17042 2.72296 6.64404 4.12908L18.5389 16.024C19.1169 16.6019 19.8849 16.9316 20.7073 16.9316Z" fill="#B4B1B2"/>
<path d="M68.3269 1.54483C78.3405 1.54483 84.7912 8.56771 84.7912 18.1333C84.7912 23.5464 83.3036 27.5747 81.1391 29.8516L85.0356 33.2942L81.0907 37.051L76.9925 33.4222C74.636 34.7741 72.5647 35.6624 68.1853 35.6624C58.1291 35.6624 51.624 29.1379 51.624 18.5852C51.624 8.60844 57.7353 1.54483 68.3269 1.54483ZM68.1368 29.807C69.5294 29.807 71.079 29.4948 72.0837 28.9595L68.5693 25.8214L72.4231 22.1092L75.8405 25.2027C76.657 23.4998 77.1884 22.1596 77.3281 18.6647C77.3281 11.7698 74.4906 7.48354 68.228 7.48354C62.652 7.48354 59.0872 11.2481 59.0872 18.5852C59.0872 26.06 62.842 29.807 68.1368 29.807" fill="#777777"/>
<path d="M95.9714 2.5697L109.449 24.7089V2.5697H116.386V34.7729H108.976L95.1995 12.2322V34.7729H88.2271V2.5697H95.9714Z" fill="#777777"/>
<path d="M135.541 2.5697C143.687 2.5697 147.385 5.6147 147.385 10.9793C147.385 13.617 146.654 15.766 143.192 17.5038C146.228 18.4871 148.44 20.991 148.44 25.0154C148.44 29.7148 145.795 34.7729 135.496 34.7729H119.697V2.5697H135.541ZM126.782 15.1725H135.298C138.764 15.1725 140.209 14.0709 140.209 11.6969C140.209 9.46264 138.859 8.32804 134.29 8.32804H126.782V15.1725ZM126.782 28.9991H135.153C139.015 28.9991 140.888 27.7927 140.888 24.5266C140.888 22.0247 139.199 20.6768 135.345 20.6768H126.782V28.9991Z" fill="#777777"/>
</svg>
